<?xml version="1.0" encoding="UTF-8"?>
<svg xmlns="http://www.w3.org/2000/svg" xmlns:xlink="http://www.w3.org/1999/xlink" viewBox="0 0 150 150" width="150px" height="150px">
<g id="surface77762909">
<path style=" stroke:none;fill-rule:nonzero;fill:rgb(92.941177%,92.941177%,92.941177%);fill-opacity:1;" d="M 72 6 C 50.496094 6 33 30.878906 33 61.460938 C 33 77.257812 37.695312 91.484375 45.183594 101.578125 C 44.609375 104.644531 45.433594 107.808594 47.425781 110.210938 C 49.421875 112.609375 52.378906 114 55.5 114 C 61.300781 114 66 109.300781 66 103.5 C 66 97.699219 61.300781 93 55.5 93 C 54.929688 93.003906 54.359375 93.054688 53.792969 93.152344 C 48.429688 85.160156 45 73.835938 45 61.460938 C 45 37.898438 57.367188 18 72 18 C 84.355469 18 95.066406 32.210938 98.109375 50.8125 C 102.375 52.035156 106.625 53.691406 110.789062 55.691406 C 108.753906 27.8125 92.136719 6 72 6 Z M 67.5 51 C 61.699219 51 57 55.699219 57 61.5 C 57 67.300781 61.699219 72 67.5 72 C 71.503906 71.996094 75.160156 69.71875 76.921875 66.125 C 86.671875 65.511719 97.9375 68.519531 108.339844 74.753906 C 128.917969 87.09375 140.113281 108.667969 132.773438 121.871094 C 130.363281 126.207031 126.015625 129.328125 120.207031 130.882812 C 111.839844 133.117188 101.578125 131.980469 91.472656 127.917969 C 88.265625 130.898438 84.738281 133.699219 80.890625 136.273438 C 90.871094 141.316406 101.429688 143.988281 111.1875 143.988281 C 115.417969 143.988281 119.5 143.492188 123.3125 142.472656 C 132.332031 140.054688 139.234375 134.945312 143.261719 127.699219 C 154.015625 108.351562 141.382812 80.574219 114.511719 64.464844 C 101.722656 56.796875 87.558594 53.261719 75.105469 54.28125 C 73.128906 52.191406 70.378906 51.003906 67.5 51 Z M 27.480469 69.972656 C 6.238281 86.386719 -2.875 110.398438 6.746094 127.699219 C 10.773438 134.945312 17.675781 140.054688 26.695312 142.472656 C 30.507812 143.492188 34.582031 143.988281 38.820312 143.988281 C 50.21875 143.988281 62.730469 140.367188 74.121094 133.542969 C 86.863281 125.902344 96.289062 115.632812 101.632812 104.890625 C 106.882812 104.316406 111 99.902344 111 94.5 C 111 88.710938 106.289062 84 100.5 84 C 94.710938 84 90 88.710938 90 94.5 C 90 96.121094 90.394531 97.640625 91.054688 99.011719 C 86.722656 107.9375 78.640625 116.835938 67.953125 123.246094 C 55.0625 130.972656 40.800781 133.828125 29.796875 130.882812 C 23.988281 129.328125 19.644531 126.207031 17.234375 121.871094 C 11.429688 111.429688 17.238281 95.769531 30.089844 83.566406 C 28.855469 79.246094 27.972656 74.699219 27.480469 69.972656 Z M 27.480469 69.972656 "/>
</g>
</svg>
