<?xml version="1.0" encoding="UTF-8"?>
<svg xmlns="http://www.w3.org/2000/svg" xmlns:xlink="http://www.w3.org/1999/xlink" viewBox="0 0 96 96" width="96px" height="96px">
<g id="surface151716730">
<path style=" stroke:none;fill-rule:nonzero;fill:rgb(92.941177%,92.941177%,92.941177%);fill-opacity:1;" d="M 2 10 L 14 18 L 14 58 L 2 50 Z M 2 10 "/>
<path style=" stroke:none;fill-rule:nonzero;fill:rgb(92.941177%,92.941177%,92.941177%);fill-opacity:1;" d="M 94 40 L 82 48 L 82 74 L 94 66 Z M 94 40 "/>
<path style=" stroke:none;fill-rule:nonzero;fill:rgb(92.941177%,92.941177%,92.941177%);fill-opacity:1;" d="M 94 12 L 82 20 L 82 34 L 94 26 Z M 94 12 "/>
<path style=" stroke:none;fill-rule:nonzero;fill:rgb(92.941177%,92.941177%,92.941177%);fill-opacity:1;" d="M 70 10 L 58 18 L 58 58 L 70 50 Z M 70 10 "/>
<path style=" stroke:none;fill-rule:nonzero;fill:rgb(92.941177%,92.941177%,92.941177%);fill-opacity:1;" d="M 2 24 L 36 46 L 36 32 L 2 10 Z M 2 24 "/>
<path style=" stroke:none;fill-rule:nonzero;fill:rgb(92.941177%,92.941177%,92.941177%);fill-opacity:1;" d="M 70 24 L 36 46 L 36 32 L 70 10 Z M 70 24 "/>
<path style=" stroke:none;fill-rule:nonzero;fill:rgb(92.941177%,92.941177%,92.941177%);fill-opacity:1;" d="M 70 52 L 36 74 L 36 60 L 70 38 Z M 70 52 "/>
<path style=" stroke:none;fill-rule:nonzero;fill:rgb(92.941177%,92.941177%,92.941177%);fill-opacity:1;" d="M 94 68 L 60 90 L 60 76 L 94 54 Z M 94 68 "/>
<path style=" stroke:none;fill-rule:nonzero;fill:rgb(92.941177%,92.941177%,92.941177%);fill-opacity:1;" d="M 60 75.53125 L 36 60 L 36 74 L 60 89.53125 Z M 60 75.53125 "/>
</g>
</svg>
