<?xml version="1.0" encoding="UTF-8"?>
<svg xmlns="http://www.w3.org/2000/svg" xmlns:xlink="http://www.w3.org/1999/xlink" viewBox="0 0 150 150" width="150px" height="150px">
<g id="surface72044644">
<path style=" stroke:none;fill-rule:nonzero;fill:rgb(17.254902%,16.470589%,19.607843%);fill-opacity:1;" d="M 135 12 L 15 12 C 13.339844 12 12 13.34375 12 15 L 12 135 C 12 136.65625 13.339844 138 15 138 L 135 138 C 136.660156 138 138 136.65625 138 135 L 138 15 C 138 13.34375 136.660156 12 135 12 Z M 87 79.335938 L 72 79.335938 L 72 126 L 60 126 L 60 79.335938 L 45 79.335938 L 45 69 L 87 69 Z M 90.363281 123.335938 L 90.363281 110.863281 C 90.363281 110.863281 97.175781 115.996094 105.351562 115.996094 C 113.527344 115.996094 113.210938 110.652344 113.210938 109.921875 C 113.210938 102.160156 90.046875 102.160156 90.046875 84.976562 C 90.046875 61.601562 123.796875 70.824219 123.796875 70.824219 L 123.378906 81.9375 C 123.378906 81.9375 117.71875 78.160156 111.324219 78.160156 C 104.929688 78.160156 102.625 81.199219 102.625 84.449219 C 102.625 92.835938 125.996094 91.996094 125.996094 108.871094 C 126 134.863281 90.363281 123.335938 90.363281 123.335938 Z M 90.363281 123.335938 "/>
</g>
</svg>
